<svg xmlns="http://www.w3.org/2000/svg"  viewBox="0 0 50 50" width="50px" height="50px"><path d="M 25 5 C 23.500227 5 21.88413 5.705447 20.072266 6.7539062 C 18.260401 7.8023655 16.284815 9.2343894 14.310547 10.84375 C 10.362011 14.062471 6.4361829 17.979119 4.0390625 20.964844 C 3.3918423 21.76976 3 22.772621 3 23.835938 L 3 26.820312 C 3 27.499916 3.0497251 28.23276 3.7851562 28.740234 C 4.1528717 28.993972 4.6655423 29.045638 5.0546875 28.943359 C 5.4438327 28.841081 5.7565686 28.639997 6.0703125 28.380859 C 9.888749 25.231623 13.766129 22.092491 17.150391 19.763672 C 20.534652 17.434853 23.525333 16 25 16 C 26.474667 16 29.465348 17.434853 32.849609 19.763672 C 36.233871 22.092491 40.111251 25.231623 43.929688 28.380859 C 44.243431 28.639997 44.556168 28.841081 44.945312 28.943359 C 45.334458 29.045638 45.847128 28.993969 46.214844 28.740234 C 46.950275 28.23276 47 27.499916 47 26.820312 L 47 23.835938 C 47 22.772621 46.608158 21.76976 45.960938 20.964844 C 43.563817 17.979119 39.637989 14.062471 35.689453 10.84375 C 33.715185 9.2343894 31.739599 7.8023655 29.927734 6.7539062 C 28.11587 5.7054471 26.499773 5 25 5 z M 25 7 C 25.786227 7 27.253052 7.5183811 28.925781 8.4863281 C 30.598511 9.4542751 32.508674 10.831767 34.425781 12.394531 C 38.259995 15.52006 42.138511 19.399521 44.400391 22.216797 A 1.0001 1.0001 0 0 0 44.402344 22.216797 C 44.792438 22.701655 45 23.25984 45 23.835938 L 45 26.679688 C 41.239192 23.580049 37.406481 20.473393 33.982422 18.117188 C 30.495183 15.717507 27.525333 14 25 14 C 22.474667 14 19.504817 15.717507 16.017578 18.117188 C 12.593519 20.473393 8.7608085 23.580049 5 26.679688 L 5 23.835938 C 5 23.25984 5.207515 22.701655 5.5976562 22.216797 A 1.0001 1.0001 0 0 0 5.5996094 22.216797 C 7.8614889 19.399521 11.740005 15.52006 15.574219 12.394531 C 17.491326 10.831767 19.401489 9.4542751 21.074219 8.4863281 C 22.746951 7.5183811 24.213773 7 25 7 z M 25 21 C 23.500227 21 21.88413 21.705447 20.072266 22.753906 C 18.260401 23.802366 16.284815 25.234389 14.310547 26.84375 C 10.362011 30.062471 6.4361829 33.979119 4.0390625 36.964844 C 3.3918423 37.76976 3 38.772621 3 39.835938 L 3 42.820312 C 3 43.499916 3.0497251 44.23276 3.7851562 44.740234 C 4.1528717 44.993972 4.6655423 45.045638 5.0546875 44.943359 C 5.4438327 44.841081 5.7565686 44.639997 6.0703125 44.380859 C 9.888749 41.231623 13.766129 38.092491 17.150391 35.763672 C 20.534652 33.434853 23.525333 32 25 32 C 26.474667 32 29.465348 33.434853 32.849609 35.763672 C 36.233871 38.092491 40.111251 41.231623 43.929688 44.380859 C 44.243431 44.639997 44.556168 44.841081 44.945312 44.943359 C 45.334458 45.045638 45.847128 44.993969 46.214844 44.740234 C 46.950275 44.23276 47 43.499916 47 42.820312 L 47 39.835938 C 47 38.772621 46.608158 37.76976 45.960938 36.964844 C 43.563817 33.979119 39.637989 30.062471 35.689453 26.84375 C 33.715185 25.234389 31.739599 23.802366 29.927734 22.753906 C 28.11587 21.705447 26.499773 21 25 21 z M 25 23 C 25.786227 23 27.253052 23.518381 28.925781 24.486328 C 30.598511 25.454275 32.508674 26.831767 34.425781 28.394531 C 38.259995 31.52006 42.138511 35.399521 44.400391 38.216797 A 1.0001 1.0001 0 0 0 44.402344 38.216797 C 44.792438 38.701655 45 39.259839 45 39.835938 L 45 42.679688 C 41.239192 39.580049 37.406481 36.473392 33.982422 34.117188 C 30.495183 31.717507 27.525333 30 25 30 C 22.474667 30 19.504817 31.717507 16.017578 34.117188 C 12.593519 36.473393 8.7608085 39.580049 5 42.679688 L 5 39.835938 C 5 39.259839 5.207515 38.701655 5.5976562 38.216797 A 1.0001 1.0001 0 0 0 5.5996094 38.216797 C 7.8614889 35.399521 11.740005 31.52006 15.574219 28.394531 C 17.491326 26.831767 19.401489 25.454275 21.074219 24.486328 C 22.746951 23.518381 24.213773 23 25 23 z"/></svg>