<svg version="1.1" id="Layer_1" xmlns="http://www.w3.org/2000/svg" xmlns:xlink="http://www.w3.org/1999/xlink" x="0px" y="0px"
	 width="100%" viewBox="0 0 830 186" enable-background="new 0 0 830 186" xml:space="preserve">
<path fill="#212121" opacity="1.000000" stroke="none" 
	d="
M612.000000,187.000000 
	C408.000031,187.000000 204.500046,187.000000 1.000055,187.000000 
	C1.000036,125.000031 1.000036,63.000065 1.000018,1.000071 
	C277.666595,1.000047 554.333191,1.000047 830.999878,1.000024 
	C830.999878,62.999928 830.999878,124.999855 830.999939,186.999893 
	C758.166687,187.000000 685.333313,187.000000 612.000000,187.000000 
M7.018137,87.500000 
	C7.018273,96.329109 6.999241,105.158264 7.023928,113.987305 
	C7.048711,122.850739 11.250692,127.031219 20.259285,127.039536 
	C49.578835,127.066597 78.898445,127.069809 108.217979,127.039665 
	C117.322479,127.030304 121.502029,123.019653 121.522385,114.023506 
	C121.588730,84.704109 121.592377,55.384319 121.512405,26.064972 
	C121.489044,17.499115 116.999100,13.138613 108.502350,13.129390 
	C79.016220,13.097384 49.530014,13.097180 20.043880,13.126618 
	C11.618883,13.135030 7.036329,17.697443 7.025161,26.028381 
	C6.998138,46.185555 7.017483,66.342789 7.018137,87.500000 
M258.422058,85.839493 
	C255.649551,90.297363 252.877045,94.755234 250.118484,99.190697 
	C249.219208,98.646027 248.828949,98.544182 248.672653,98.295372 
	C244.516556,91.679558 240.358124,85.064903 236.256470,78.415283 
	C232.693146,72.638428 231.113358,72.063339 224.033005,74.240654 
	C224.033005,91.300713 224.033005,108.378487 224.033005,125.654602 
	C227.227829,125.654602 230.132751,125.654602 233.762207,125.654602 
	C233.762207,114.620674 233.762207,103.872154 233.762207,93.123634 
	C238.029617,97.959442 241.210495,102.982025 244.427200,107.981560 
	C247.980408,113.504051 250.571320,113.473694 254.282974,107.876564 
	C256.397125,104.688477 258.454803,101.462868 260.575928,98.279510 
	C261.852356,96.363876 263.201904,94.496964 264.518585,92.608162 
	C264.887482,92.792107 265.256348,92.976059 265.625244,93.160004 
	C265.625244,103.914558 265.625244,114.669113 265.625244,125.645889 
	C268.896820,125.645889 271.792084,125.645889 275.224091,125.645889 
	C275.224091,108.896133 275.266968,92.455887 275.108215,76.017578 
	C275.099487,75.115456 273.524323,73.638626 272.486267,73.441727 
	C268.655212,72.715065 265.364044,73.388779 263.498840,77.580574 
	C262.293488,80.289444 260.410858,82.696922 258.422058,85.839493 
M171.817978,112.473473 
	C171.817978,116.773781 171.817978,121.074081 171.817978,125.484673 
	C181.781021,125.484673 191.301010,126.245094 200.638794,125.266563 
	C209.620224,124.325371 215.010590,116.340828 212.814346,107.949295 
	C211.726807,103.793968 208.368088,100.233063 205.849243,96.094856 
	C210.348114,93.088257 211.194412,87.858940 209.782211,82.170082 
	C208.622437,77.498108 205.040710,74.410332 200.528473,74.159401 
	C191.143570,73.637497 181.709412,74.001671 171.818741,74.001671 
	C171.818741,86.565437 171.818741,99.023201 171.817978,112.473473 
M358.742004,77.092690 
	C358.742004,93.215111 358.742004,109.337532 358.742004,125.633957 
	C368.509369,125.633957 377.679230,126.132988 386.762848,125.462898 
	C393.082489,124.996704 397.970245,121.426933 399.624390,114.650154 
	C401.280853,107.863869 399.349396,102.829880 393.234924,98.229919 
	C392.743073,97.859901 392.381927,97.316132 391.813934,96.692719 
	C397.582306,92.784798 398.390289,87.311607 396.493317,81.531799 
	C394.575439,75.688431 389.497986,73.748840 383.825439,73.567886 
	C376.666687,73.339531 369.493683,73.300636 362.336975,73.516434 
	C361.115143,73.553276 359.944122,75.274200 358.742004,77.092690 
M486.671509,125.903297 
	C501.551147,128.575714 513.888916,121.894867 518.094666,108.887909 
	C522.550659,95.107124 516.815430,80.545097 504.726532,74.945473 
	C490.829468,68.508293 474.530273,74.624290 468.827911,88.415825 
	C462.412506,103.931862 469.811676,120.137283 486.671509,125.903297 
M704.613098,83.132271 
	C703.846985,84.415184 702.987427,85.652077 702.329468,86.988251 
	C697.118347,97.570976 699.357605,111.428162 707.522034,119.363335 
	C715.582520,127.197517 728.541138,129.111252 738.516968,123.625900 
	C749.435730,117.622040 753.153015,107.881035 752.139526,95.923225 
	C751.271667,85.683998 744.360413,76.698532 734.613892,73.824463 
	C722.989929,70.396759 712.950745,73.085121 704.613098,83.132271 
M440.290710,125.863121 
	C452.155151,122.165009 459.269989,113.368889 459.887054,101.636047 
	C460.529053,89.428940 454.767365,79.240891 444.704895,74.790443 
	C434.040100,70.073593 421.651917,72.508469 414.017303,80.822037 
	C406.449860,89.062447 404.838409,102.859673 410.261322,112.980537 
	C415.825500,123.365044 426.711151,128.221725 440.290710,125.863121 
M562.905518,73.926834 
	C555.643494,81.092926 548.381470,88.259018 541.119446,95.425117 
	C539.921936,89.216827 539.673950,83.461731 540.004761,77.740097 
	C540.245178,73.583420 538.212952,73.252724 534.895996,73.211418 
	C531.416077,73.168083 529.824585,73.884193 529.890808,77.865219 
	C530.117859,91.507660 529.975525,105.156227 529.976501,118.802460 
	C529.977112,126.290504 529.980103,126.304520 537.255127,125.939049 
	C538.023804,125.900436 538.778137,125.575920 539.377930,125.424675 
	C541.648193,117.596619 535.800964,107.570099 546.903748,102.537735 
	C551.335449,108.415375 555.842590,114.356590 560.309814,120.327690 
	C565.026001,126.631554 567.107544,127.323883 575.859314,125.041412 
	C568.298706,115.155060 560.864502,105.433975 553.324524,95.574615 
	C560.497253,88.287033 567.446594,81.226418 574.987976,73.564301 
	C570.760559,73.564301 567.186279,73.564301 562.905518,73.926834 
M288.348022,84.276054 
	C287.191376,94.490448 291.252045,100.143410 301.790497,103.157806 
	C305.453156,104.205452 309.286926,105.022079 312.596252,106.782951 
	C314.254547,107.665291 315.928528,110.544006 315.733002,112.314110 
	C315.537903,114.080437 313.311127,116.351295 311.458649,117.070236 
	C305.678436,119.313461 300.290314,117.869553 295.838776,113.603058 
	C294.458649,112.280312 293.600769,110.412674 292.220459,108.376587 
	C289.235016,111.899452 287.353058,114.120216 285.543945,116.254990 
	C292.668213,125.802933 305.192200,129.307144 315.727753,125.010056 
	C322.261993,122.344955 325.959198,117.155678 326.001953,110.454880 
	C326.045074,103.702202 322.139587,99.599983 316.364563,97.231575 
	C312.387817,95.600685 308.082764,94.789787 303.995148,93.403923 
	C300.733551,92.298126 297.482086,90.652611 298.068939,86.496979 
	C298.666779,82.263779 302.221588,80.459160 305.816071,81.183319 
	C310.590912,82.145279 315.112122,84.366287 320.491882,86.318321 
	C321.475250,85.287422 323.372955,83.298042 325.320221,81.256691 
	C319.949677,73.533844 312.631226,71.594284 304.425476,72.401344 
	C297.221466,73.109886 291.331787,76.169655 288.348022,84.276054 
M630.625488,72.751289 
	C625.874451,73.093864 620.893677,72.650398 616.424072,73.956215 
	C609.009033,76.122551 605.258240,82.495926 606.053650,89.613609 
	C606.787537,96.181038 610.898743,100.021393 616.785034,102.112495 
	C620.692810,103.500740 625.009827,103.971260 628.632629,105.842201 
	C630.900635,107.013458 633.982971,110.505203 633.548035,112.091759 
	C632.909302,114.421906 629.716064,116.973648 627.140930,117.655663 
	C622.071777,118.998199 617.246216,117.256317 613.508545,113.381874 
	C612.272461,112.100571 611.403320,110.465279 610.067810,108.567642 
	C607.238586,111.856812 605.334839,114.069962 603.355713,116.370834 
	C610.197632,125.272850 618.945679,127.924782 629.263184,126.157066 
	C638.009888,124.658485 643.207642,119.354805 643.908936,111.535133 
	C644.539307,104.506920 640.153076,98.897758 631.634216,96.091843 
	C628.164978,94.949158 624.537720,94.274849 621.094299,93.068069 
	C617.939331,91.962372 614.727356,89.709137 616.243774,86.209816 
	C617.239502,83.911842 620.963745,81.109222 623.147705,81.355568 
	C628.070251,81.910820 632.794983,84.219696 637.402344,85.749329 
	C638.772705,84.748604 641.017517,83.109230 643.214233,81.504990 
	C640.334534,76.513657 636.225647,74.239784 630.625488,72.751289 
M664.370300,123.835587 
	C664.379333,122.004974 664.395630,120.174370 664.396118,118.343758 
	C664.398804,107.000366 664.397644,107.000305 675.692017,106.619385 
	C676.024658,106.608170 676.358154,106.612083 676.690063,106.590797 
	C686.197937,105.981102 692.827393,99.026634 692.807983,89.685280 
	C692.788574,80.326836 686.079102,73.455162 676.435303,73.159813 
	C670.615479,72.981575 664.779419,73.279007 658.963623,73.042404 
	C655.405884,72.897659 654.417358,74.243599 654.454529,77.678925 
	C654.611511,92.156738 654.511963,106.637253 654.539001,121.116707 
	C654.541687,122.558067 654.766724,123.999016 654.962341,126.311943 
	C658.378052,125.721741 661.308411,125.215393 664.370300,123.835587 
M773.073364,83.570457 
	C773.145996,95.367874 773.234192,107.165215 773.285706,118.962723 
	C773.318237,126.414803 773.294434,126.429031 780.577820,126.044434 
	C781.347534,126.003799 782.102051,125.674942 783.331665,125.359863 
	C783.331665,111.172333 783.331665,97.112106 783.331665,82.485840 
	C788.771484,82.485840 793.688965,82.485840 798.730713,82.485840 
	C798.730713,79.284935 798.730713,76.669395 798.730713,73.975113 
	C785.198181,73.975113 771.867432,73.975113 758.470581,73.975113 
	C758.470581,76.896736 758.470581,79.350143 758.470581,82.795349 
	C763.260986,82.795349 767.857849,82.795349 773.073364,83.570457 
M62.551083,153.065491 
	C64.877106,153.065674 67.227875,152.850311 69.523659,153.113861 
	C73.503510,153.570770 74.895714,151.904922 74.718834,148.046082 
	C74.513641,143.569687 74.828331,139.067947 74.578743,134.596100 
	C74.507736,133.323837 73.257439,132.117401 72.547943,130.880768 
	C71.799683,132.078491 70.472534,133.244980 70.405899,134.479492 
	C70.151520,139.192108 70.303162,143.926620 70.303162,148.597260 
	C65.810913,148.597260 62.230106,148.597260 58.126495,148.597260 
	C58.126495,144.818527 58.411114,141.330597 58.029373,137.917191 
	C57.761765,135.524292 60.026031,132.154602 55.919151,130.863602 
	C55.272812,133.122314 54.341896,135.345612 54.055370,137.649078 
	C53.729744,140.266876 53.979572,142.956329 53.980293,145.614624 
	C53.982304,153.061981 53.982517,153.061981 62.551083,153.065491 
z"/>
<path fill="#F9ABC8" opacity="1.000000" stroke="none" 
	d="
M7.018137,87.000000 
	C7.017483,66.342789 6.998138,46.185555 7.025161,26.028381 
	C7.036329,17.697443 11.618883,13.135030 20.043880,13.126618 
	C49.530014,13.097180 79.016220,13.097384 108.502350,13.129390 
	C116.999100,13.138613 121.489044,17.499115 121.512405,26.064972 
	C121.592377,55.384319 121.588730,84.704109 121.522385,114.023506 
	C121.502029,123.019653 117.322479,127.030304 108.217979,127.039665 
	C78.898445,127.069809 49.578835,127.066597 20.259285,127.039536 
	C11.250692,127.031219 7.048711,122.850739 7.023928,113.987305 
	C6.999241,105.158264 7.018273,96.329109 7.018137,87.000000 
M75.879646,70.970802 
	C71.542282,78.945267 72.659012,86.317268 79.330879,93.753929 
	C85.415741,100.536293 95.480698,102.488152 103.538933,98.448494 
	C111.958839,94.227524 116.509193,84.938904 114.571701,75.927368 
	C112.640160,66.943565 104.561638,59.824989 95.280739,60.097672 
	C90.246460,60.245583 89.510605,57.648323 89.704193,54.014935 
	C90.175453,53.985447 90.646721,53.955959 91.887192,53.964397 
	C98.327019,53.098354 101.384537,48.081997 98.387878,43.298950 
	C96.503136,40.290661 86.066689,38.026546 82.162369,40.196701 
	C78.159561,42.421589 82.293671,45.512142 81.807060,48.180161 
	C81.753769,48.472374 81.529663,48.733429 81.175278,49.407341 
	C73.236366,49.407341 65.089691,49.566040 56.961605,49.248692 
	C55.631054,49.196739 54.382404,47.047199 53.520485,46.256588 
	C55.458321,44.150890 56.558636,42.955261 57.658955,41.759628 
	C56.107868,41.133053 54.597721,40.142307 52.996426,39.962265 
	C50.364414,39.666340 47.652172,39.705544 45.017635,39.998310 
	C43.975330,40.114136 43.050457,41.286648 42.072117,41.978031 
	C42.947701,42.752823 43.725647,43.705288 44.725163,44.254566 
	C45.818012,44.855145 47.798363,44.738541 48.200436,45.535568 
	C49.589886,48.289871 51.324535,51.431564 48.430634,54.232506 
	C45.761116,56.816280 45.984329,62.937893 39.207893,60.646801 
	C31.211946,57.943401 22.419735,61.508656 17.502655,68.217377 
	C12.543454,74.983559 12.128227,83.634155 16.644375,90.740707 
	C21.035667,97.650772 27.469580,101.130020 35.629986,100.432228 
	C44.414238,99.681091 50.274025,94.766541 53.548748,86.560341 
	C54.165424,85.014999 55.882004,82.609772 56.849174,82.720169 
	C61.982552,83.306137 64.840752,80.559677 67.565781,76.919891 
	C69.720993,74.041206 72.258675,71.448868 75.256538,69.211098 
	C75.610657,69.602928 75.964775,69.994751 75.879646,70.970802 
z"/>
<path fill="#F0A6C0" opacity="1.000000" stroke="none" 
	d="
M258.626892,85.539482 
	C260.410858,82.696922 262.293488,80.289444 263.498840,77.580574 
	C265.364044,73.388779 268.655212,72.715065 272.486267,73.441727 
	C273.524323,73.638626 275.099487,75.115456 275.108215,76.017578 
	C275.266968,92.455887 275.224091,108.896133 275.224091,125.645889 
	C271.792084,125.645889 268.896820,125.645889 265.625244,125.645889 
	C265.625244,114.669113 265.625244,103.914558 265.625244,93.160004 
	C265.256348,92.976059 264.887482,92.792107 264.518585,92.608162 
	C263.201904,94.496964 261.852356,96.363876 260.575928,98.279510 
	C258.454803,101.462868 256.397125,104.688477 254.282974,107.876564 
	C250.571320,113.473694 247.980408,113.504051 244.427200,107.981560 
	C241.210495,102.982025 238.029617,97.959442 233.762207,93.123634 
	C233.762207,103.872154 233.762207,114.620674 233.762207,125.654602 
	C230.132751,125.654602 227.227829,125.654602 224.033005,125.654602 
	C224.033005,108.378487 224.033005,91.300713 224.033005,74.240654 
	C231.113358,72.063339 232.693146,72.638428 236.256470,78.415283 
	C240.358124,85.064903 244.516556,91.679558 248.672653,98.295372 
	C248.828949,98.544182 249.219208,98.646027 250.118484,99.190697 
	C252.877045,94.755234 255.649551,90.297363 258.626892,85.539482 
z"/>
<path fill="#F3A7C2" opacity="1.000000" stroke="none" 
	d="
M171.818359,111.977219 
	C171.818741,99.023201 171.818741,86.565437 171.818741,74.001671 
	C181.709412,74.001671 191.143570,73.637497 200.528473,74.159401 
	C205.040710,74.410332 208.622437,77.498108 209.782211,82.170082 
	C211.194412,87.858940 210.348114,93.088257 205.849243,96.094856 
	C208.368088,100.233063 211.726807,103.793968 212.814346,107.949295 
	C215.010590,116.340828 209.620224,124.325371 200.638794,125.266563 
	C191.301010,126.245094 181.781021,125.484673 171.817978,125.484673 
	C171.817978,121.074081 171.817978,116.773781 171.818359,111.977219 
M186.680969,117.134735 
	C189.987061,117.096107 193.311508,117.261520 196.594498,116.966187 
	C200.522888,116.612785 203.089645,114.394508 203.236069,110.283493 
	C203.378326,106.289436 200.814255,103.964043 197.208786,103.656738 
	C192.182617,103.228340 187.092621,103.548836 181.422150,103.548836 
	C181.422150,106.964218 181.625092,110.079231 181.368362,113.155891 
	C181.078140,116.634346 182.701416,117.549736 186.680969,117.134735 
M187.626129,82.136765 
	C185.718674,82.136765 183.811218,82.136765 181.789429,82.136765 
	C181.789429,86.772659 181.789429,90.641846 181.789429,94.821617 
	C186.282349,94.821617 190.412766,95.063492 194.500702,94.750519 
	C198.251953,94.463333 200.632706,92.230576 200.554749,88.245636 
	C200.480011,84.425079 197.976639,82.692108 194.487595,82.282867 
	C192.527054,82.052910 190.525299,82.174286 187.626129,82.136765 
z"/>
<path fill="#F3A8C2" opacity="1.000000" stroke="none" 
	d="
M358.745819,76.654907 
	C359.944122,75.274200 361.115143,73.553276 362.336975,73.516434 
	C369.493683,73.300636 376.666687,73.339531 383.825439,73.567886 
	C389.497986,73.748840 394.575439,75.688431 396.493317,81.531799 
	C398.390289,87.311607 397.582306,92.784798 391.813934,96.692719 
	C392.381927,97.316132 392.743073,97.859901 393.234924,98.229919 
	C399.349396,102.829880 401.280853,107.863869 399.624390,114.650154 
	C397.970245,121.426933 393.082489,124.996704 386.762848,125.462898 
	C377.679230,126.132988 368.509369,125.633957 358.742004,125.633957 
	C358.742004,109.337532 358.742004,93.215111 358.745819,76.654907 
M387.528839,104.904526 
	C381.828400,104.375130 376.132629,103.768600 370.421021,103.424461 
	C369.784302,103.386101 368.511261,104.808662 368.466095,105.606491 
	C368.255615,109.327385 368.372772,113.066826 368.372772,117.069031 
	C373.781189,117.069031 378.424408,117.326324 383.027802,117.008064 
	C389.746490,116.543564 391.990387,111.228737 387.528839,104.904526 
M377.327026,82.142197 
	C367.128082,82.406433 368.426849,80.130127 368.352386,91.458290 
	C368.346100,92.410255 368.570740,93.363739 368.737976,94.721329 
	C373.360077,94.721329 377.925659,95.394783 382.122803,94.443253 
	C384.290558,93.951805 386.800690,90.813950 387.370483,88.442741 
	C388.149017,85.202805 385.508057,83.028076 382.181427,82.395546 
	C380.894165,82.150772 379.547333,82.219086 377.327026,82.142197 
z"/>
<path fill="#F2A6C1" opacity="1.000000" stroke="none" 
	d="
M486.270721,125.822037 
	C469.811676,120.137283 462.412506,103.931862 468.827911,88.415825 
	C474.530273,74.624290 490.829468,68.508293 504.726532,74.945473 
	C516.815430,80.545097 522.550659,95.107124 518.094666,108.887909 
	C513.888916,121.894867 501.551147,128.575714 486.270721,125.822037 
M508.858551,94.309334 
	C506.755676,87.557968 502.649658,82.924652 495.317871,82.043266 
	C488.829956,81.263329 483.385193,83.379784 479.849396,89.021950 
	C475.811188,95.465836 475.735046,102.307762 479.226196,108.985565 
	C482.082031,114.448082 486.829071,117.130608 493.063690,117.183891 
	C499.320740,117.237366 504.509888,114.694702 506.823608,109.074745 
	C508.567230,104.839592 508.395142,99.815720 508.858551,94.309334 
z"/>
<path fill="#F2A6C1" opacity="1.000000" stroke="none" 
	d="
M704.809448,82.831512 
	C712.950745,73.085121 722.989929,70.396759 734.613892,73.824463 
	C744.360413,76.698532 751.271667,85.683998 752.139526,95.923225 
	C753.153015,107.881035 749.435730,117.622040 738.516968,123.625900 
	C728.541138,129.111252 715.582520,127.197517 707.522034,119.363335 
	C699.357605,111.428162 697.118347,97.570976 702.329468,86.988251 
	C702.987427,85.652077 703.846985,84.415184 704.809448,82.831512 
M738.614075,88.008858 
	C735.263794,86.029587 732.132324,83.157562 728.514282,82.271057 
	C722.414490,80.776451 716.911255,83.035957 713.187195,88.302986 
	C708.762024,94.561630 708.550049,101.411621 711.656250,108.227661 
	C714.115356,113.623840 718.547058,116.661392 724.559509,117.135994 
	C730.941711,117.639771 736.116272,115.339699 739.412720,109.844940 
	C743.639343,102.799500 743.444275,95.619560 738.614075,88.008858 
z"/>
<path fill="#F2A6C1" opacity="1.000000" stroke="none" 
	d="
M439.883911,125.939148 
	C426.711151,128.221725 415.825500,123.365044 410.261322,112.980537 
	C404.838409,102.859673 406.449860,89.062447 414.017303,80.822037 
	C421.651917,72.508469 434.040100,70.073593 444.704895,74.790443 
	C454.767365,79.240891 460.529053,89.428940 459.887054,101.636047 
	C459.269989,113.368889 452.155151,122.165009 439.883911,125.939148 
M434.354584,81.906425 
	C423.426758,82.376991 416.786713,89.497597 417.233398,100.266670 
	C417.671722,110.834061 424.812805,117.698624 434.793243,117.146584 
	C443.012848,116.691933 449.442688,109.718834 449.915009,100.747169 
	C450.435028,90.870216 444.766510,83.634201 434.354584,81.906425 
z"/>
<path fill="#EEA5BF" opacity="1.000000" stroke="none" 
	d="
M563.258789,73.745567 
	C567.186279,73.564301 570.760559,73.564301 574.987976,73.564301 
	C567.446594,81.226418 560.497253,88.287033 553.324524,95.574615 
	C560.864502,105.433975 568.298706,115.155060 575.859314,125.041412 
	C567.107544,127.323883 565.026001,126.631554 560.309814,120.327690 
	C555.842590,114.356590 551.335449,108.415375 546.903748,102.537735 
	C535.800964,107.570099 541.648193,117.596619 539.377930,125.424675 
	C538.778137,125.575920 538.023804,125.900436 537.255127,125.939049 
	C529.980103,126.304520 529.977112,126.290504 529.976501,118.802460 
	C529.975525,105.156227 530.117859,91.507660 529.890808,77.865219 
	C529.824585,73.884193 531.416077,73.168083 534.895996,73.211418 
	C538.212952,73.252724 540.245178,73.583420 540.004761,77.740097 
	C539.673950,83.461731 539.921936,89.216827 541.119446,95.425117 
	C548.381470,88.259018 555.643494,81.092926 563.258789,73.745567 
z"/>
<path fill="#F0A5C0" opacity="1.000000" stroke="none" 
	d="
M288.495850,83.899582 
	C291.331787,76.169655 297.221466,73.109886 304.425476,72.401344 
	C312.631226,71.594284 319.949677,73.533844 325.320221,81.256691 
	C323.372955,83.298042 321.475250,85.287422 320.491882,86.318321 
	C315.112122,84.366287 310.590912,82.145279 305.816071,81.183319 
	C302.221588,80.459160 298.666779,82.263779 298.068939,86.496979 
	C297.482086,90.652611 300.733551,92.298126 303.995148,93.403923 
	C308.082764,94.789787 312.387817,95.600685 316.364563,97.231575 
	C322.139587,99.599983 326.045074,103.702202 326.001953,110.454880 
	C325.959198,117.155678 322.261993,122.344955 315.727753,125.010056 
	C305.192200,129.307144 292.668213,125.802933 285.543945,116.254990 
	C287.353058,114.120216 289.235016,111.899452 292.220459,108.376587 
	C293.600769,110.412674 294.458649,112.280312 295.838776,113.603058 
	C300.290314,117.869553 305.678436,119.313461 311.458649,117.070236 
	C313.311127,116.351295 315.537903,114.080437 315.733002,112.314110 
	C315.928528,110.544006 314.254547,107.665291 312.596252,106.782951 
	C309.286926,105.022079 305.453156,104.205452 301.790497,103.157806 
	C291.252045,100.143410 287.191376,94.490448 288.495850,83.899582 
z"/>
<path fill="#F0A5C0" opacity="1.000000" stroke="none" 
	d="
M631.027222,72.841675 
	C636.225647,74.239784 640.334534,76.513657 643.214233,81.504990 
	C641.017517,83.109230 638.772705,84.748604 637.402344,85.749329 
	C632.794983,84.219696 628.070251,81.910820 623.147705,81.355568 
	C620.963745,81.109222 617.239502,83.911842 616.243774,86.209816 
	C614.727356,89.709137 617.939331,91.962372 621.094299,93.068069 
	C624.537720,94.274849 628.164978,94.949158 631.634216,96.091843 
	C640.153076,98.897758 644.539307,104.506920 643.908936,111.535133 
	C643.207642,119.354805 638.009888,124.658485 629.263184,126.157066 
	C618.945679,127.924782 610.197632,125.272850 603.355713,116.370834 
	C605.334839,114.069962 607.238586,111.856812 610.067810,108.567642 
	C611.403320,110.465279 612.272461,112.100571 613.508545,113.381874 
	C617.246216,117.256317 622.071777,118.998199 627.140930,117.655663 
	C629.716064,116.973648 632.909302,114.421906 633.548035,112.091759 
	C633.982971,110.505203 630.900635,107.013458 628.632629,105.842201 
	C625.009827,103.971260 620.692810,103.500740 616.785034,102.112495 
	C610.898743,100.021393 606.787537,96.181038 606.053650,89.613609 
	C605.258240,82.495926 609.009033,76.122551 616.424072,73.956215 
	C620.893677,72.650398 625.874451,73.093864 631.027222,72.841675 
z"/>
<path fill="#F2A6C1" opacity="1.000000" stroke="none" 
	d="
M664.304565,124.272316 
	C661.308411,125.215393 658.378052,125.721741 654.962341,126.311943 
	C654.766724,123.999016 654.541687,122.558067 654.539001,121.116707 
	C654.511963,106.637253 654.611511,92.156738 654.454529,77.678925 
	C654.417358,74.243599 655.405884,72.897659 658.963623,73.042404 
	C664.779419,73.279007 670.615479,72.981575 676.435303,73.159813 
	C686.079102,73.455162 692.788574,80.326836 692.807983,89.685280 
	C692.827393,99.026634 686.197937,105.981102 676.690063,106.590797 
	C676.358154,106.612083 676.024658,106.608170 675.692017,106.619385 
	C664.397644,107.000305 664.398804,107.000366 664.396118,118.343758 
	C664.395630,120.174370 664.379333,122.004974 664.304565,124.272316 
M681.161377,94.641632 
	C683.520325,90.958397 684.011475,86.197006 680.257996,84.483475 
	C675.935730,82.510277 670.469299,83.043243 665.499817,82.487785 
	C664.978149,87.250000 664.456482,92.012215 663.735352,98.595200 
	C670.338074,97.286186 675.495056,96.263802 681.161377,94.641632 
z"/>
<path fill="#F3A8C2" opacity="1.000000" stroke="none" 
	d="
M772.764038,83.182907 
	C767.857849,82.795349 763.260986,82.795349 758.470581,82.795349 
	C758.470581,79.350143 758.470581,76.896736 758.470581,73.975113 
	C771.867432,73.975113 785.198181,73.975113 798.730713,73.975113 
	C798.730713,76.669395 798.730713,79.284935 798.730713,82.485840 
	C793.688965,82.485840 788.771484,82.485840 783.331665,82.485840 
	C783.331665,97.112106 783.331665,111.172333 783.331665,125.359863 
	C782.102051,125.674942 781.347534,126.003799 780.577820,126.044434 
	C773.294434,126.429031 773.318237,126.414803 773.285706,118.962723 
	C773.234192,107.165215 773.145996,95.367874 772.764038,83.182907 
z"/>
<path fill="#DB98B0" opacity="1.000000" stroke="none" 
	d="
M62.071350,153.065384 
	C53.982517,153.061981 53.982304,153.061981 53.980293,145.614624 
	C53.979572,142.956329 53.729744,140.266876 54.055370,137.649078 
	C54.341896,135.345612 55.272812,133.122314 55.919151,130.863602 
	C60.026031,132.154602 57.761765,135.524292 58.029373,137.917191 
	C58.411114,141.330597 58.126495,144.818527 58.126495,148.597260 
	C62.230106,148.597260 65.810913,148.597260 70.303162,148.597260 
	C70.303162,143.926620 70.151520,139.192108 70.405899,134.479492 
	C70.472534,133.244980 71.799683,132.078491 72.547943,130.880768 
	C73.257439,132.117401 74.507736,133.323837 74.578743,134.596100 
	C74.828331,139.067947 74.513641,143.569687 74.718834,148.046082 
	C74.895714,151.904922 73.503510,153.570770 69.523659,153.113861 
	C67.227875,152.850311 64.877106,153.065674 62.071350,153.065384 
z"/>
<path fill="#372F32" opacity="1.000000" stroke="none" 
	d="
M74.626511,68.729378 
	C72.258675,71.448868 69.720993,74.041206 67.565781,76.919891 
	C64.840752,80.559677 61.982552,83.306137 56.849174,82.720169 
	C55.882004,82.609772 54.165424,85.014999 53.548748,86.560341 
	C50.274025,94.766541 44.414238,99.681091 35.629986,100.432228 
	C27.469580,101.130020 21.035667,97.650772 16.644375,90.740707 
	C12.128227,83.634155 12.543454,74.983559 17.502655,68.217377 
	C22.419735,61.508656 31.211946,57.943401 39.207893,60.646801 
	C45.984329,62.937893 45.761116,56.816280 48.430634,54.232506 
	C51.324535,51.431564 49.589886,48.289871 48.200436,45.535568 
	C47.798363,44.738541 45.818012,44.855145 44.725163,44.254566 
	C43.725647,43.705288 42.947701,42.752823 42.072117,41.978027 
	C43.050457,41.286648 43.975330,40.114136 45.017635,39.998310 
	C47.652172,39.705544 50.364414,39.666340 52.996426,39.962265 
	C54.597721,40.142307 56.107868,41.133053 57.658955,41.759628 
	C56.558636,42.955261 55.458321,44.150890 53.520485,46.256588 
	C54.382404,47.047199 55.631054,49.196739 56.961605,49.248692 
	C65.089691,49.566040 73.236366,49.407341 81.175278,49.407341 
	C81.529663,48.733429 81.753769,48.472374 81.807060,48.180161 
	C82.293671,45.512142 78.159561,42.421589 82.162369,40.196701 
	C86.066689,38.026546 96.503136,40.290661 98.387878,43.298950 
	C101.384537,48.081997 98.327019,53.098354 91.336502,53.643044 
	C91.311508,52.100441 91.726097,50.813965 92.394005,49.676201 
	C93.067337,48.529194 93.992226,47.529865 94.806900,46.465832 
	C93.489487,45.706699 92.249466,44.602085 90.833069,44.284794 
	C89.392838,43.962166 87.778801,44.415432 85.495193,44.583961 
	C86.848518,48.225319 87.921738,51.112984 88.994949,54.000648 
	C89.510605,57.648323 90.246460,60.245583 95.280739,60.097672 
	C104.561638,59.824989 112.640160,66.943565 114.571701,75.927368 
	C116.509193,84.938904 111.958839,94.227524 103.538933,98.448494 
	C95.480698,102.488152 85.415741,100.536293 79.330879,93.753929 
	C72.659012,86.317268 71.542282,78.945267 76.381622,70.493523 
	C79.228996,67.687340 81.336151,65.027153 83.985992,63.121620 
	C86.697586,61.171677 86.329758,59.636292 84.016647,56.946484 
	C80.767105,61.024063 77.696808,64.876717 74.626511,68.729378 
M109.648727,75.425179 
	C105.719269,66.920067 99.858009,63.397987 92.403641,65.455933 
	C93.131508,67.807190 94.163025,70.113976 94.511711,72.519714 
	C94.969788,75.680206 98.871574,80.428879 95.097321,81.649445 
	C90.783714,83.044411 91.744995,76.842575 90.271477,74.080582 
	C89.018867,71.732674 88.459358,69.014999 87.100296,65.007545 
	C84.132187,68.692459 81.641769,70.958817 80.186371,73.762459 
	C77.123848,79.662041 78.774879,86.996147 83.621117,91.563400 
	C88.546181,96.204926 95.725922,97.290611 101.628822,94.286423 
	C108.169487,90.957649 111.100601,84.505943 109.648727,75.425179 
M43.304279,82.417290 
	C41.143070,82.415764 38.965836,82.573929 36.826027,82.359169 
	C35.280949,82.204102 33.785641,81.553177 32.268139,81.123405 
	C32.732086,79.631752 32.933414,77.983810 33.710316,76.678413 
	C35.851566,73.080521 38.233707,69.625999 40.659092,65.902092 
	C31.518240,63.209957 24.976122,65.269104 20.792496,71.534874 
	C16.962410,77.271149 17.350323,84.657440 21.768082,90.111237 
	C26.093529,95.451080 33.379238,97.376991 39.778641,94.872169 
	C45.501221,92.632271 49.037712,87.813950 48.642853,82.417351 
	C47.189465,82.417351 45.710209,82.417351 43.304279,82.417290 
M56.754311,54.413723 
	C58.564465,61.136730 60.374622,67.859734 62.494705,75.733810 
	C69.073395,67.913681 74.597809,61.346775 80.728065,54.059708 
	C72.064781,54.059708 64.778877,54.059708 56.754311,54.413723 
M52.442020,58.458321 
	C47.468292,61.557285 47.079453,63.524677 50.013657,67.827782 
	C51.572365,70.113670 52.424423,72.871590 53.878967,75.242500 
	C54.600315,76.418304 55.962189,77.201141 57.034283,78.161766 
	C57.489975,77.754646 57.945671,77.347534 58.401363,76.940414 
	C56.540970,70.987419 54.680580,65.034424 52.442020,58.458321 
M43.465298,69.958847 
	C41.971706,72.371964 40.478111,74.785072 38.817738,77.467651 
	C42.834709,77.467651 45.987701,77.467651 49.563244,77.467651 
	C48.411186,73.739464 48.499104,69.998543 43.465298,69.958847 
z"/>
<path fill="#D191A8" opacity="1.000000" stroke="none" 
	d="
M89.349571,54.007790 
	C87.921738,51.112984 86.848518,48.225319 85.495193,44.583961 
	C87.778801,44.415432 89.392838,43.962166 90.833069,44.284794 
	C92.249466,44.602085 93.489487,45.706699 94.806900,46.465832 
	C93.992226,47.529865 93.067337,48.529194 92.394005,49.676201 
	C91.726097,50.813965 91.311508,52.100441 90.951904,53.624077 
	C90.646721,53.955959 90.175453,53.985447 89.349571,54.007790 
z"/>
<path fill="#D191A8" opacity="1.000000" stroke="none" 
	d="
M74.941528,68.970238 
	C77.696808,64.876717 80.767105,61.024063 84.016647,56.946484 
	C86.329758,59.636292 86.697586,61.171677 83.985992,63.121620 
	C81.336151,65.027153 79.228996,67.687340 76.601250,70.201416 
	C75.964775,69.994751 75.610657,69.602928 74.941528,68.970238 
z"/>
<path fill="#2E292B" opacity="1.000000" stroke="none" 
	d="
M186.211502,117.134689 
	C182.701416,117.549736 181.078140,116.634346 181.368362,113.155891 
	C181.625092,110.079231 181.422150,106.964218 181.422150,103.548836 
	C187.092621,103.548836 192.182617,103.228340 197.208786,103.656738 
	C200.814255,103.964043 203.378326,106.289436 203.236069,110.283493 
	C203.089645,114.394508 200.522888,116.612785 196.594498,116.966187 
	C193.311508,117.261520 189.987061,117.096107 186.211502,117.134689 
z"/>
<path fill="#312B2D" opacity="1.000000" stroke="none" 
	d="
M188.084122,82.137070 
	C190.525299,82.174286 192.527054,82.052910 194.487595,82.282867 
	C197.976639,82.692108 200.480011,84.425079 200.554749,88.245636 
	C200.632706,92.230576 198.251953,94.463333 194.500702,94.750519 
	C190.412766,95.063492 186.282349,94.821617 181.789429,94.821617 
	C181.789429,90.641846 181.789429,86.772659 181.789429,82.136765 
	C183.811218,82.136765 185.718674,82.136765 188.084122,82.137070 
z"/>
<path fill="#2E292B" opacity="1.000000" stroke="none" 
	d="
M387.839355,105.158470 
	C391.990387,111.228737 389.746490,116.543564 383.027802,117.008064 
	C378.424408,117.326324 373.781189,117.069031 368.372772,117.069031 
	C368.372772,113.066826 368.255615,109.327385 368.466095,105.606491 
	C368.511261,104.808662 369.784302,103.386101 370.421021,103.424461 
	C376.132629,103.768600 381.828400,104.375130 387.839355,105.158470 
z"/>
<path fill="#312B2D" opacity="1.000000" stroke="none" 
	d="
M377.777344,82.143486 
	C379.547333,82.219086 380.894165,82.150772 382.181427,82.395546 
	C385.508057,83.028076 388.149017,85.202805 387.370483,88.442741 
	C386.800690,90.813950 384.290558,93.951805 382.122803,94.443253 
	C377.925659,95.394783 373.360077,94.721329 368.737976,94.721329 
	C368.570740,93.363739 368.346100,92.410255 368.352386,91.458290 
	C368.426849,80.130127 367.128082,82.406433 377.777344,82.143486 
z"/>
<path fill="#262425" opacity="1.000000" stroke="none" 
	d="
M508.967163,94.726120 
	C508.395142,99.815720 508.567230,104.839592 506.823608,109.074745 
	C504.509888,114.694702 499.320740,117.237366 493.063690,117.183891 
	C486.829071,117.130608 482.082031,114.448082 479.226196,108.985565 
	C475.735046,102.307762 475.811188,95.465836 479.849396,89.021950 
	C483.385193,83.379784 488.829956,81.263329 495.317871,82.043266 
	C502.649658,82.924652 506.755676,87.557968 508.967163,94.726120 
z"/>
<path fill="#252324" opacity="1.000000" stroke="none" 
	d="
M738.834595,88.311523 
	C743.444275,95.619560 743.639343,102.799500 739.412720,109.844940 
	C736.116272,115.339699 730.941711,117.639771 724.559509,117.135994 
	C718.547058,116.661392 714.115356,113.623840 711.656250,108.227661 
	C708.550049,101.411621 708.762024,94.561630 713.187195,88.302986 
	C716.911255,83.035957 722.414490,80.776451 728.514282,82.271057 
	C732.132324,83.157562 735.263794,86.029587 738.834595,88.311523 
z"/>
<path fill="#262425" opacity="1.000000" stroke="none" 
	d="
M434.777161,81.934570 
	C444.766510,83.634201 450.435028,90.870216 449.915009,100.747169 
	C449.442688,109.718834 443.012848,116.691933 434.793243,117.146584 
	C424.812805,117.698624 417.671722,110.834061 417.233398,100.266670 
	C416.786713,89.497597 423.426758,82.376991 434.777161,81.934570 
z"/>
<path fill="#2E292B" opacity="1.000000" stroke="none" 
	d="
M680.906738,94.941528 
	C675.495056,96.263802 670.338074,97.286186 663.735352,98.595200 
	C664.456482,92.012215 664.978149,87.250000 665.499817,82.487793 
	C670.469299,83.043243 675.935730,82.510277 680.257996,84.483475 
	C684.011475,86.197006 683.520325,90.958397 680.906738,94.941528 
z"/>
<path fill="#F4A8C4" opacity="1.000000" stroke="none" 
	d="
M109.739105,75.830521 
	C111.100601,84.505943 108.169487,90.957649 101.628822,94.286423 
	C95.725922,97.290611 88.546181,96.204926 83.621117,91.563400 
	C78.774879,86.996147 77.123848,79.662041 80.186371,73.762459 
	C81.641769,70.958817 84.132187,68.692459 87.100296,65.007545 
	C88.459358,69.014999 89.018867,71.732674 90.271477,74.080582 
	C91.744995,76.842575 90.783714,83.044411 95.097321,81.649445 
	C98.871574,80.428879 94.969788,75.680206 94.511711,72.519714 
	C94.163025,70.113976 93.131508,67.807190 92.403641,65.455933 
	C99.858009,63.397987 105.719269,66.920067 109.739105,75.830521 
z"/>
<path fill="#F2A6C1" opacity="1.000000" stroke="none" 
	d="
M43.767616,82.417320 
	C45.710209,82.417351 47.189465,82.417351 48.642853,82.417351 
	C49.037712,87.813950 45.501221,92.632271 39.778641,94.872169 
	C33.379238,97.376991 26.093529,95.451080 21.768082,90.111237 
	C17.350323,84.657440 16.962410,77.271149 20.792496,71.534874 
	C24.976122,65.269104 31.518240,63.209957 40.659092,65.902092 
	C38.233707,69.625999 35.851566,73.080521 33.710316,76.678413 
	C32.933414,77.983810 32.732086,79.631752 32.268135,81.123405 
	C33.785641,81.553177 35.280949,82.204102 36.826027,82.359169 
	C38.965836,82.573929 41.143070,82.415764 43.767616,82.417320 
z"/>
<path fill="#F0A5C0" opacity="1.000000" stroke="none" 
	d="
M57.123642,54.236717 
	C64.778877,54.059708 72.064781,54.059708 80.728065,54.059708 
	C74.597809,61.346775 69.073395,67.913681 62.494705,75.733810 
	C60.374622,67.859734 58.564465,61.136730 57.123642,54.236717 
z"/>
<path fill="#DB98B0" opacity="1.000000" stroke="none" 
	d="
M52.631104,58.769875 
	C54.680580,65.034424 56.540970,70.987419 58.401363,76.940414 
	C57.945671,77.347534 57.489975,77.754646 57.034283,78.161766 
	C55.962189,77.201141 54.600315,76.418304 53.878967,75.242500 
	C52.424423,72.871590 51.572365,70.113670 50.013657,67.827782 
	C47.079453,63.524677 47.468292,61.557285 52.631104,58.769875 
z"/>
<path fill="#DB98B0" opacity="1.000000" stroke="none" 
	d="
M43.715424,69.692398 
	C48.499104,69.998543 48.411186,73.739464 49.563244,77.467651 
	C45.987701,77.467651 42.834709,77.467651 38.817738,77.467651 
	C40.478111,74.785072 41.971706,72.371964 43.715424,69.692398 
z"/>
</svg>