<svg version="1.1" id="Layer_1" xmlns="http://www.w3.org/2000/svg" xmlns:xlink="http://www.w3.org/1999/xlink" x="0px" y="0px"
	 width="100%" viewBox="0 0 847 173" enable-background="new 0 0 847 173" xml:space="preserve">
<path fill="#212122" opacity="1.000000" stroke="none" 
	d="
M612.000000,174.000000 
	C408.049835,174.000000 204.599686,174.000000 1.074760,174.000000 
	C1.074760,116.397377 1.074760,58.794636 1.074760,1.095946 
	C283.333313,1.095946 565.666626,1.095946 847.970947,1.095946 
	C847.970947,58.733700 847.970947,116.366859 847.970947,174.000000 
	C769.461243,174.000000 690.980591,174.000000 612.000000,174.000000 
M718.946411,116.797630 
	C719.635681,117.183723 720.324890,117.569809 721.342407,118.460609 
	C721.889038,118.657158 722.435669,118.853714 723.458008,119.539749 
	C725.641907,120.122719 727.825745,120.705688 730.851807,121.685066 
	C734.231140,121.598183 737.610413,121.511299 741.600464,121.592781 
	C742.367554,121.312050 743.134705,121.031326 744.637329,120.844681 
	C754.333008,118.648972 759.846680,112.295135 761.597961,102.835312 
	C763.651733,91.741760 763.036133,80.705498 753.230225,73.382652 
	C743.937378,66.442917 733.302917,66.832764 723.058716,71.990471 
	C718.239929,74.416595 714.332581,77.975227 712.194458,83.960121 
	C711.574097,85.316452 710.953735,86.672783 709.988281,88.783707 
	C709.520691,87.290955 709.109070,86.486061 709.031067,85.650032 
	C708.119690,75.885445 702.709473,70.746674 692.814941,70.447639 
	C688.995667,70.332207 685.170044,70.429428 681.347290,70.429504 
	C675.126038,70.429634 668.904724,70.429543 662.380310,70.429543 
	C662.380310,86.952736 662.389832,102.235466 662.372009,117.518166 
	C662.368591,120.482246 663.740479,121.602448 666.704041,121.461357 
	C670.685425,121.271812 674.686035,121.308060 678.671509,121.446335 
	C681.442505,121.542473 682.577942,120.523712 682.475220,117.680756 
	C682.316589,113.292381 682.433411,108.894043 682.433411,104.362885 
	C694.573242,104.113281 705.586487,103.852844 709.664307,90.300323 
	C710.020569,92.711380 709.794067,94.830765 710.077148,96.879730 
	C710.440613,99.510521 711.213623,102.084709 711.684204,105.374046 
	C713.312744,108.297440 714.941345,111.220825 716.784607,114.755005 
	C717.447449,115.276627 718.110291,115.798248 718.776855,116.229713 
	C718.776855,116.229713 718.687500,116.242676 718.946411,116.797630 
M477.914459,92.891617 
	C477.933502,95.595795 477.952576,98.299980 477.594818,101.303146 
	C477.888031,101.924088 478.181244,102.545021 478.705688,103.910347 
	C481.896210,115.455666 489.155090,121.375847 500.852692,121.972931 
	C519.893066,122.944809 530.091614,112.970772 529.831360,93.632355 
	C529.635925,79.111359 521.453186,69.978439 507.341156,68.530777 
	C493.014954,67.061134 481.404846,75.247124 477.999268,89.049133 
	C477.967010,90.029152 477.934753,91.009163 477.914459,92.891617 
M294.633423,91.524063 
	C294.486969,85.698601 294.204041,79.872063 294.250214,74.048126 
	C294.274170,71.025841 293.209656,69.890732 290.177460,69.987907 
	C284.022003,70.185181 277.848450,70.370590 271.702209,70.103775 
	C267.813110,69.934944 266.572144,71.500481 266.018219,75.114616 
	C264.908234,82.356506 263.305939,89.522934 261.906860,96.720512 
	C261.468048,96.717743 261.029236,96.714981 260.590393,96.712212 
	C259.091125,89.126633 257.657196,81.526962 256.026581,73.969711 
	C255.762421,72.745308 254.652817,70.754654 253.887817,70.732773 
	C245.657059,70.497345 237.417023,70.586067 229.185394,70.586067 
	C229.185394,87.342270 229.185394,103.893646 229.185394,120.458954 
	C234.630371,120.458954 239.675140,120.458954 245.247147,120.458954 
	C245.247147,110.843048 245.247147,101.656441 245.247147,92.469833 
	C246.662949,93.444733 247.180740,94.551682 247.453186,95.716019 
	C249.120850,102.843185 250.651306,110.003822 252.431824,117.102058 
	C252.791779,118.537094 253.926361,120.797188 254.877274,120.889442 
	C259.160400,121.304962 263.536346,121.353775 267.807404,120.884598 
	C268.862396,120.768715 270.086548,118.326607 270.483337,116.763550 
	C272.078857,110.478325 273.350647,104.111542 274.818176,97.792595 
	C275.079895,96.665840 275.702728,95.622971 276.158844,94.541367 
	C277.032654,99.257980 276.995178,103.726723 277.039429,108.194656 
	C277.199463,124.346550 275.542053,120.879585 290.217896,121.466270 
	C294.145294,121.623283 295.063721,119.985741 294.961945,116.487694 
	C294.729645,108.501556 294.740417,100.508347 294.633423,91.524063 
M132.089676,112.332481 
	C131.837357,110.737595 131.378616,109.144241 131.366714,107.547562 
	C131.297226,98.221237 131.332397,88.894127 131.332306,79.567284 
	C131.332214,68.862587 131.329727,68.763412 141.746567,68.498421 
	C145.603729,68.400291 147.869919,66.914146 147.891083,62.983292 
	C147.956558,50.825665 147.984924,38.666439 147.843857,26.509972 
	C147.803223,23.006760 145.736221,21.065884 142.053513,21.077467 
	C133.392975,21.104706 124.732277,21.084467 116.071648,21.091747 
	C112.188782,21.095013 110.191322,23.128630 110.176476,26.934841 
	C110.129700,38.926281 110.151321,50.918083 110.180107,62.909660 
	C110.188843,66.549271 112.036392,68.460213 115.732086,68.464539 
	C119.164864,68.468559 122.597641,68.465401 126.615509,68.465401 
	C126.615509,70.978798 126.615402,72.766357 126.615540,74.553917 
	C126.616379,85.379715 126.462112,96.208794 126.690292,107.029800 
	C126.789192,111.720085 126.339455,115.583336 122.168190,118.810547 
	C120.025002,120.468689 118.238861,123.805435 118.032707,126.516045 
	C117.472244,133.885468 117.840263,141.325500 117.840263,148.584167 
	C125.544945,148.584167 133.106705,148.584167 140.614151,148.584167 
	C140.614151,136.088135 140.614151,123.999184 140.614151,111.397171 
	C137.868561,111.829033 135.451782,112.209175 132.089676,112.332481 
M79.065002,129.689575 
	C77.502144,126.530472 78.689308,124.246399 80.962334,121.819611 
	C85.766106,116.690857 90.254692,111.266891 95.221672,105.563141 
	C96.017281,107.317322 96.401917,108.049278 96.689491,108.817566 
	C99.314087,115.829460 101.825279,122.886612 104.625702,129.827209 
	C105.114838,131.039490 106.800308,131.769073 107.933243,132.721603 
	C108.292397,131.183746 109.110199,129.581680 108.905930,128.122696 
	C108.578918,125.787003 107.574120,123.546211 106.546127,120.281876 
	C109.727440,121.200188 111.854149,121.814079 114.088432,122.459023 
	C115.118347,120.571709 116.047661,118.868744 117.621597,115.984512 
	C113.647743,115.046394 110.241776,114.262497 106.847717,113.430046 
	C105.676369,113.142754 103.773361,113.036354 103.495583,112.335594 
	C100.233109,104.105064 97.216431,95.777100 94.073715,87.309875 
	C98.141304,87.309875 101.407204,87.309875 106.481804,87.309875 
	C104.695534,90.422089 103.444374,92.529724 102.272476,94.680550 
	C101.824371,95.502968 101.030220,96.748528 101.325310,97.228325 
	C101.834404,98.056091 103.144455,99.010506 103.991356,98.903748 
	C107.601585,98.448654 109.752296,96.086792 109.782127,92.520241 
	C109.814758,88.618073 111.549469,83.164429 105.615013,82.322189 
	C99.738503,81.488197 93.649483,82.052788 87.660049,82.225098 
	C86.810974,82.249519 85.788345,83.399239 85.260994,84.277321 
	C85.015884,84.685448 85.581215,86.149536 86.092262,86.354584 
	C91.260406,88.428246 90.364235,93.537704 92.719093,97.979210 
	C82.389893,97.979210 72.946007,97.774094 63.517796,98.069496 
	C59.092041,98.208160 57.131916,96.560547 56.996746,93.753250 
	C59.780514,91.561142 63.330364,90.130966 63.510727,88.358017 
	C63.980320,83.741875 60.219913,82.526680 56.172714,82.361191 
	C53.345764,82.245590 50.524715,81.967522 47.703640,81.730896 
	C44.139202,81.431931 42.410912,83.167320 42.253845,86.624405 
	C42.097412,90.067535 43.249527,92.891380 47.120518,92.647331 
	C50.131580,92.457497 51.609005,93.287987 52.821667,96.025826 
	C54.100121,98.912224 53.507919,100.884483 51.608040,103.205208 
	C45.701294,110.420349 39.941917,117.760078 34.287552,125.175148 
	C32.857540,127.050430 32.031967,129.386627 30.928650,131.511032 
	C33.219048,132.021973 35.497704,132.597061 37.804344,133.019257 
	C39.142902,133.264252 40.526432,133.263550 42.084827,133.389145 
	C39.442150,138.916245 36.038494,141.022903 31.344269,140.160416 
	C26.717453,139.310318 23.908880,136.399216 23.341587,131.775421 
	C22.747618,126.934181 25.029564,123.702438 29.359985,121.332993 
	C32.124920,119.820122 34.309834,117.247192 36.754799,115.149536 
	C36.456120,114.630722 36.157444,114.111900 35.858765,113.593086 
	C34.255890,113.593086 32.633598,113.431015 31.053396,113.620300 
	C22.901783,114.596779 16.426434,121.322632 15.993915,129.149673 
	C15.511904,137.872314 20.938148,145.235596 29.305794,147.213608 
	C37.284706,149.099747 45.308086,144.815582 48.722595,136.845825 
	C50.683701,132.268433 59.430630,130.967316 62.303444,135.012100 
	C64.970001,138.766479 68.398567,140.251328 72.669426,139.043472 
	C76.772919,137.882965 78.865707,134.787766 79.065002,129.689575 
M539.718994,70.125969 
	C536.192566,69.676872 534.687073,70.824265 534.780090,74.768372 
	C535.031433,85.417526 534.756714,96.077950 534.848511,106.732544 
	C534.889526,111.483788 533.543457,118.074203 536.045166,120.471664 
	C538.632874,122.951530 545.138367,121.182793 549.901001,121.603264 
	C553.847107,121.951653 554.667908,120.210121 554.572632,116.658478 
	C554.451294,112.135239 554.934326,107.595795 555.156799,103.063332 
	C558.894226,107.751991 561.328857,112.614258 563.940735,117.379387 
	C564.696777,118.758698 565.909607,120.866127 567.001282,120.922241 
	C573.505493,121.256592 580.035522,121.087601 587.556519,121.087601 
	C582.799561,112.969025 578.951538,105.804657 574.496155,99.040329 
	C572.139343,95.462074 572.122314,92.831184 574.423340,89.250397 
	C578.115356,83.504997 581.175781,77.353783 584.939148,70.590569 
	C578.792725,70.590569 573.817505,70.789543 568.867554,70.521996 
	C565.455627,70.337578 563.806458,71.714851 562.561951,74.773941 
	C560.542603,79.737282 558.050903,84.508453 555.758606,89.360771 
	C555.264771,89.243713 554.770874,89.126663 554.277039,89.009605 
	C554.277039,87.291183 554.312256,85.571884 554.270020,83.854500 
	C554.164490,79.563538 555.670715,73.459778 553.466064,71.457802 
	C550.907288,69.134254 545.079346,70.410866 539.718994,70.125969 
M405.999695,70.094986 
	C395.299408,70.094986 384.599152,70.094986 373.575562,70.094986 
	C373.575562,75.465431 373.565735,79.610634 373.577515,83.755768 
	C373.608673,94.730278 373.548157,105.707092 373.802063,116.676567 
	C373.837463,118.206657 375.442749,121.015175 376.312286,121.011642 
	C387.260162,120.967186 398.263580,121.069122 409.130432,119.947655 
	C415.176697,119.323662 419.723053,115.149422 420.710541,108.504112 
	C421.695312,101.876686 418.267120,97.812393 412.571136,95.183617 
	C412.365479,95.088707 412.323792,94.638519 412.715759,95.583076 
	C415.200043,91.267525 418.371094,87.888100 419.094299,84.047699 
	C420.487030,76.652245 415.961853,72.151230 405.999695,70.094986 
M208.126328,120.846161 
	C210.512344,120.144028 213.032990,119.727898 215.256836,118.681198 
	C220.135254,116.385086 223.027542,112.560951 223.178513,106.949150 
	C223.320892,101.655899 220.728287,98.151581 216.160980,95.842819 
	C215.532272,95.525009 215.027206,94.962570 214.140076,94.253899 
	C220.391144,90.347206 223.315704,85.426842 220.953522,78.424278 
	C218.585922,71.405617 212.521912,70.225487 206.465485,70.007111 
	C197.656464,69.689461 188.815033,69.988655 180.001724,70.362297 
	C178.617630,70.420975 176.155579,72.242363 176.139236,73.279404 
	C175.908325,87.931580 176.014542,102.589066 176.038681,117.245270 
	C176.043350,120.081970 177.207001,121.370003 180.292313,121.284698 
	C189.279358,121.036217 198.273682,121.050926 208.126328,120.846161 
M432.326538,117.249733 
	C443.747162,124.418343 460.735931,123.346298 468.507965,114.966568 
	C477.201324,105.593483 477.941376,87.428818 469.667603,77.001068 
	C467.595490,74.389519 464.562378,72.126518 461.497131,70.789665 
	C449.202728,65.427658 434.114319,69.503029 427.463043,79.528503 
	C421.905579,87.905304 420.469147,107.810928 432.326538,117.249733 
M639.166565,108.345825 
	C636.183899,111.410667 633.288513,111.948799 630.440918,108.136475 
	C629.973328,107.510376 629.223083,106.672470 628.588867,106.659744 
	C622.869141,106.545074 617.146118,106.592674 611.172058,106.592674 
	C612.188538,114.262115 615.592346,118.736267 622.311279,120.747574 
	C631.191345,123.405792 639.805298,122.557472 648.196777,119.082985 
	C654.622925,116.422241 658.232910,111.589211 658.186218,104.399193 
	C658.142578,97.693787 655.089233,93.449478 647.766479,90.804031 
	C643.399231,89.226311 638.764343,88.399918 634.357056,86.916908 
	C632.803833,86.394272 631.531433,84.964684 630.271667,83.797249 
	C630.183655,83.715752 631.191528,81.802872 631.822205,81.717316 
	C633.653137,81.468910 636.040771,81.002457 637.340576,81.891975 
	C643.697998,86.242912 650.209900,83.162170 656.822876,83.938080 
	C656.614746,77.916138 654.156677,74.374077 650.155273,71.818581 
	C641.776367,66.467308 625.171509,67.522614 617.408997,73.837189 
	C608.310608,81.238449 609.867981,93.953850 620.623718,98.404419 
	C624.738953,100.107262 629.232117,100.887474 633.535278,102.148842 
	C636.371399,102.980209 639.655029,103.387917 639.166565,108.345825 
M324.878265,87.888130 
	C323.761475,87.555374 322.524872,87.422188 321.557098,86.841217 
	C320.235535,86.047897 319.028687,84.993553 318.006805,83.843109 
	C317.845520,83.661522 318.803772,81.853210 319.440216,81.717850 
	C321.121460,81.360306 323.530609,80.746506 324.554565,81.580193 
	C330.761780,86.633995 337.455566,82.981659 344.092621,83.916618 
	C344.480225,77.610207 341.690277,73.679108 337.112427,71.545586 
	C326.419006,66.561882 315.670593,67.003075 305.674469,73.435272 
	C300.492798,76.769547 298.665924,82.197525 299.327942,88.286453 
	C299.950897,94.016418 303.920898,97.027664 308.866882,98.740059 
	C313.256897,100.259987 317.936707,100.962334 322.284698,102.575188 
	C324.161957,103.271538 325.699890,105.221809 326.968048,106.919197 
	C327.205963,107.237633 325.462311,109.974144 324.583466,110.001503 
	C322.516083,110.065857 320.367554,109.312698 318.353668,108.601875 
	C317.228882,108.204880 316.330536,106.655846 315.290802,106.614410 
	C310.014038,106.404152 304.724426,106.517540 299.472961,106.517540 
	C299.296936,112.920418 301.945190,117.570122 307.174316,119.689949 
	C317.894043,124.035614 328.444031,123.035156 338.497284,117.651062 
	C343.830536,114.794815 345.986420,109.764816 345.785034,103.820343 
	C345.584259,97.894806 342.615509,93.681160 337.105835,91.569473 
	C333.392303,90.146187 329.494843,89.202713 324.878265,87.888130 
M795.740723,91.545731 
	C795.862671,89.232620 795.398438,85.178429 796.207397,84.906082 
	C799.816162,83.691078 803.788635,83.556396 807.711121,83.020264 
	C807.711121,78.959572 807.711121,74.888351 807.711121,70.878265 
	C792.888855,70.878265 778.356873,70.878265 763.626526,70.878265 
	C763.626526,72.462166 763.633850,73.455040 763.625305,74.447792 
	C763.549377,83.265915 763.539490,83.415192 772.058228,83.937592 
	C775.403259,84.142715 775.828613,85.987228 775.789734,88.536308 
	C775.660400,97.026939 775.545410,105.517990 775.364380,114.007584 
	C775.210693,121.217293 775.173584,121.217529 782.136658,121.227386 
	C785.300415,121.231865 788.476318,121.059204 791.624634,121.280495 
	C794.897644,121.510551 796.006836,120.300659 795.915833,117.008392 
	C795.690430,108.854485 795.777954,100.691925 795.740723,91.545731 
M91.316162,124.937965 
	C88.476883,135.876846 94.366295,145.680634 104.847893,147.463501 
	C111.927048,148.667603 113.608414,146.899185 112.045364,139.893356 
	C100.918076,140.979568 98.326271,138.388824 98.052567,126.744553 
	C97.992249,124.178398 96.554474,121.644615 95.321495,117.733513 
	C93.509758,120.862885 92.539276,122.539177 91.316162,124.937965 
z"/>
<path fill="#B7DAF6" opacity="1.000000" stroke="none" 
	d="
M294.642914,92.021034 
	C294.740417,100.508347 294.729645,108.501556 294.961945,116.487694 
	C295.063721,119.985741 294.145294,121.623283 290.217896,121.466270 
	C275.542053,120.879585 277.199463,124.346550 277.039429,108.194656 
	C276.995178,103.726723 277.032654,99.257980 276.158844,94.541367 
	C275.702728,95.622971 275.079895,96.665840 274.818176,97.792595 
	C273.350647,104.111542 272.078857,110.478325 270.483337,116.763550 
	C270.086548,118.326607 268.862396,120.768715 267.807404,120.884598 
	C263.536346,121.353775 259.160400,121.304962 254.877274,120.889442 
	C253.926361,120.797188 252.791779,118.537094 252.431824,117.102058 
	C250.651306,110.003822 249.120850,102.843185 247.453186,95.716019 
	C247.180740,94.551682 246.662949,93.444733 245.247147,92.469833 
	C245.247147,101.656441 245.247147,110.843048 245.247147,120.458954 
	C239.675140,120.458954 234.630371,120.458954 229.185394,120.458954 
	C229.185394,103.893646 229.185394,87.342270 229.185394,70.586067 
	C237.417023,70.586067 245.657059,70.497345 253.887817,70.732773 
	C254.652817,70.754654 255.762421,72.745308 256.026581,73.969711 
	C257.657196,81.526962 259.091125,89.126633 260.590393,96.712212 
	C261.029236,96.714981 261.468048,96.717743 261.906860,96.720512 
	C263.305939,89.522934 264.908234,82.356506 266.018219,75.114616 
	C266.572144,71.500481 267.813110,69.934944 271.702209,70.103775 
	C277.848450,70.370590 284.022003,70.185181 290.177460,69.987907 
	C293.209656,69.890732 294.274170,71.025841 294.250214,74.048126 
	C294.204041,79.872063 294.486969,85.698601 294.642914,92.021034 
z"/>
<path fill="#B6D8F4" opacity="1.000000" stroke="none" 
	d="
M132.562347,112.460907 
	C135.451782,112.209175 137.868561,111.829033 140.614151,111.397171 
	C140.614151,123.999184 140.614151,136.088135 140.614151,148.584167 
	C133.106705,148.584167 125.544945,148.584167 117.840263,148.584167 
	C117.840263,141.325500 117.472244,133.885468 118.032707,126.516045 
	C118.238861,123.805435 120.025002,120.468689 122.168190,118.810547 
	C126.339455,115.583336 126.789192,111.720085 126.690292,107.029800 
	C126.462112,96.208794 126.616379,85.379715 126.615540,74.553917 
	C126.615402,72.766357 126.615509,70.978798 126.615509,68.465401 
	C122.597641,68.465401 119.164864,68.468559 115.732086,68.464539 
	C112.036392,68.460213 110.188843,66.549271 110.180107,62.909660 
	C110.151321,50.918083 110.129700,38.926281 110.176476,26.934841 
	C110.191322,23.128630 112.188782,21.095013 116.071648,21.091747 
	C124.732277,21.084467 133.392975,21.104706 142.053513,21.077467 
	C145.736221,21.065884 147.803223,23.006760 147.843857,26.509972 
	C147.984924,38.666439 147.956558,50.825665 147.891083,62.983292 
	C147.869919,66.914146 145.603729,68.400291 141.746567,68.498421 
	C131.329727,68.763412 131.332214,68.862587 131.332306,79.567284 
	C131.332397,88.894127 131.297226,98.221237 131.366714,107.547562 
	C131.378616,109.144241 131.837357,110.737595 132.562347,112.460907 
M138.453705,34.170639 
	C134.235077,28.861794 128.414474,31.010536 123.117027,31.065958 
	C122.443932,31.073000 121.240082,32.963146 121.216637,34.001968 
	C121.051315,41.327049 121.048981,48.659657 121.228653,55.984116 
	C121.252785,56.967758 122.588913,57.919216 123.317497,58.885582 
	C124.210617,57.908428 125.727158,57.016323 125.874352,55.937393 
	C126.244659,53.223061 125.996864,50.424404 125.996864,47.784634 
	C139.035172,46.136501 141.843674,43.159367 138.453705,34.170639 
z"/>
<path fill="#ADCEE8" opacity="1.000000" stroke="none" 
	d="
M79.069359,130.090820 
	C78.865707,134.787766 76.772919,137.882965 72.669426,139.043472 
	C68.398567,140.251328 64.970001,138.766479 62.303444,135.012100 
	C59.430630,130.967316 50.683701,132.268433 48.722595,136.845825 
	C45.308086,144.815582 37.284706,149.099747 29.305794,147.213608 
	C20.938148,145.235596 15.511904,137.872314 15.993915,129.149673 
	C16.426434,121.322632 22.901783,114.596779 31.053396,113.620300 
	C32.633598,113.431015 34.255890,113.593086 35.858765,113.593086 
	C36.157444,114.111900 36.456120,114.630722 36.754799,115.149536 
	C34.309834,117.247192 32.124920,119.820122 29.359985,121.332993 
	C25.029564,123.702438 22.747618,126.934181 23.341587,131.775421 
	C23.908880,136.399216 26.717453,139.310318 31.344269,140.160416 
	C36.038494,141.022903 39.442150,138.916245 42.084827,133.389145 
	C40.526432,133.263550 39.142902,133.264252 37.804344,133.019257 
	C35.497704,132.597061 33.219048,132.021973 30.928650,131.511032 
	C32.031967,129.386627 32.857540,127.050430 34.287552,125.175148 
	C39.941917,117.760078 45.701294,110.420349 51.608040,103.205208 
	C53.507919,100.884483 54.100121,98.912224 52.821667,96.025826 
	C51.609005,93.287987 50.131580,92.457497 47.120518,92.647331 
	C43.249527,92.891380 42.097412,90.067535 42.253845,86.624405 
	C42.410912,83.167320 44.139202,81.431931 47.703640,81.730896 
	C50.524715,81.967522 53.345764,82.245590 56.172714,82.361191 
	C60.219913,82.526680 63.980320,83.741875 63.510727,88.358017 
	C63.330364,90.130966 59.780514,91.561142 56.996746,93.753250 
	C57.131916,96.560547 59.092041,98.208160 63.517796,98.069496 
	C72.946007,97.774094 82.389893,97.979210 92.719093,97.979210 
	C90.364235,93.537704 91.260406,88.428246 86.092262,86.354584 
	C85.581215,86.149536 85.015884,84.685448 85.260994,84.277321 
	C85.788345,83.399239 86.810974,82.249519 87.660049,82.225098 
	C93.649483,82.052788 99.738503,81.488197 105.615013,82.322189 
	C111.549469,83.164429 109.814758,88.618073 109.782127,92.520241 
	C109.752296,96.086792 107.601585,98.448654 103.991356,98.903748 
	C103.144455,99.010506 101.834404,98.056091 101.325310,97.228325 
	C101.030220,96.748528 101.824371,95.502968 102.272476,94.680550 
	C103.444374,92.529724 104.695534,90.422089 106.481804,87.309875 
	C101.407204,87.309875 98.141304,87.309875 94.073715,87.309875 
	C97.216431,95.777100 100.233109,104.105064 103.495583,112.335594 
	C103.773361,113.036354 105.676369,113.142754 106.847717,113.430046 
	C110.241776,114.262497 113.647743,115.046394 117.621597,115.984512 
	C116.047661,118.868744 115.118347,120.571709 114.088432,122.459023 
	C111.854149,121.814079 109.727440,121.200188 106.546127,120.281876 
	C107.574120,123.546211 108.578918,125.787003 108.905930,128.122696 
	C109.110199,129.581680 108.292397,131.183746 107.933243,132.721603 
	C106.800308,131.769073 105.114838,131.039490 104.625702,129.827209 
	C101.825279,122.886612 99.314087,115.829460 96.689491,108.817566 
	C96.401917,108.049278 96.017281,107.317322 95.221672,105.563141 
	C90.254692,111.266891 85.766106,116.690857 80.962334,121.819611 
	C78.689308,124.246399 77.502144,126.530472 79.069359,130.090820 
M69.487320,121.271439 
	C71.256073,121.342018 73.845154,122.202515 74.660873,121.355392 
	C80.092537,115.714592 85.145119,109.708763 90.887581,103.176979 
	C80.379524,103.176979 71.171112,103.176979 60.991886,103.176979 
	C63.782387,109.450409 66.313026,115.139641 69.487320,121.271439 
M45.983223,119.341339 
	C46.583538,120.550728 47.183857,121.760117 47.897316,123.197441 
	C44.166489,123.848976 40.018356,122.685074 39.410664,127.981155 
	C46.133453,127.981155 52.634121,128.390610 59.021423,127.720131 
	C60.829090,127.530373 64.020416,123.685295 63.637779,122.375069 
	C61.963474,116.642021 59.209126,111.224380 56.434952,104.728172 
	C52.436474,109.975487 49.147240,114.292038 45.983223,119.341339 
M66.040916,129.730133 
	C66.973412,131.273499 67.618599,133.684952 68.919418,134.115494 
	C70.213692,134.543869 73.000145,133.392059 73.596260,132.178589 
	C74.193222,130.963379 73.440529,128.123138 72.305412,127.221771 
	C70.028633,125.413834 67.668602,126.285858 66.040916,129.730133 
z"/>
<path fill="#B7DAF6" opacity="1.000000" stroke="none" 
	d="
M540.194702,70.125381 
	C545.079346,70.410866 550.907288,69.134254 553.466064,71.457802 
	C555.670715,73.459778 554.164490,79.563538 554.270020,83.854500 
	C554.312256,85.571884 554.277039,87.291183 554.277039,89.009605 
	C554.770874,89.126663 555.264771,89.243713 555.758606,89.360771 
	C558.050903,84.508453 560.542603,79.737282 562.561951,74.773941 
	C563.806458,71.714851 565.455627,70.337578 568.867554,70.521996 
	C573.817505,70.789543 578.792725,70.590569 584.939148,70.590569 
	C581.175781,77.353783 578.115356,83.504997 574.423340,89.250397 
	C572.122314,92.831184 572.139343,95.462074 574.496155,99.040329 
	C578.951538,105.804657 582.799561,112.969025 587.556519,121.087601 
	C580.035522,121.087601 573.505493,121.256592 567.001282,120.922241 
	C565.909607,120.866127 564.696777,118.758698 563.940735,117.379387 
	C561.328857,112.614258 558.894226,107.751991 555.156799,103.063332 
	C554.934326,107.595795 554.451294,112.135239 554.572632,116.658478 
	C554.667908,120.210121 553.847107,121.951653 549.901001,121.603264 
	C545.138367,121.182793 538.632874,122.951530 536.045166,120.471664 
	C533.543457,118.074203 534.889526,111.483788 534.848511,106.732544 
	C534.756714,96.077950 535.031433,85.417526 534.780090,74.768372 
	C534.687073,70.824265 536.192566,69.676872 540.194702,70.125381 
z"/>
<path fill="#B7DAF6" opacity="1.000000" stroke="none" 
	d="
M406.436401,70.168159 
	C415.961853,72.151230 420.487030,76.652245 419.094299,84.047699 
	C418.371094,87.888100 415.200043,91.267525 412.715759,95.583076 
	C412.323792,94.638519 412.365479,95.088707 412.571136,95.183617 
	C418.267120,97.812393 421.695312,101.876686 420.710541,108.504112 
	C419.723053,115.149422 415.176697,119.323662 409.130432,119.947655 
	C398.263580,121.069122 387.260162,120.967186 376.312286,121.011642 
	C375.442749,121.015175 373.837463,118.206657 373.802063,116.676567 
	C373.548157,105.707092 373.608673,94.730278 373.577515,83.755768 
	C373.565735,79.610634 373.575562,75.465431 373.575562,70.094986 
	C384.599152,70.094986 395.299408,70.094986 406.436401,70.168159 
M402.328766,102.294960 
	C400.496307,98.323853 395.831238,97.199089 393.921936,99.281258 
	C391.957733,101.423286 392.869080,106.202133 392.522156,109.827164 
	C395.248169,109.646835 398.314575,110.149849 400.570648,109.026115 
	C401.892792,108.367577 401.923767,105.116875 402.328766,102.294960 
M398.599823,80.575386 
	C391.981049,78.797707 391.140503,79.446709 391.681061,86.674446 
	C391.828186,88.641769 390.443512,91.922409 394.296570,91.994751 
	C397.869843,92.061852 401.252472,90.808250 401.721252,86.860786 
	C401.943268,84.991249 400.200653,82.888382 398.599823,80.575386 
z"/>
<path fill="#B6DAF6" opacity="1.000000" stroke="none" 
	d="
M207.695740,120.904297 
	C198.273682,121.050926 189.279358,121.036217 180.292313,121.284698 
	C177.207001,121.370003 176.043350,120.081970 176.038681,117.245270 
	C176.014542,102.589066 175.908325,87.931580 176.139236,73.279404 
	C176.155579,72.242363 178.617630,70.420975 180.001724,70.362297 
	C188.815033,69.988655 197.656464,69.689461 206.465485,70.007111 
	C212.521912,70.225487 218.585922,71.405617 220.953522,78.424278 
	C223.315704,85.426842 220.391144,90.347206 214.140076,94.253899 
	C215.027206,94.962570 215.532272,95.525009 216.160980,95.842819 
	C220.728287,98.151581 223.320892,101.655899 223.178513,106.949150 
	C223.027542,112.560951 220.135254,116.385086 215.256836,118.681198 
	C213.032990,119.727898 210.512344,120.144028 207.695740,120.904297 
M203.932465,100.802132 
	C202.952728,100.228600 201.947220,99.140289 200.998611,99.187813 
	C198.972168,99.289307 195.327698,99.781265 195.246048,100.461411 
	C194.853653,103.729912 195.426819,107.114342 195.657166,110.457596 
	C198.286896,109.935509 201.638062,110.196480 203.320602,108.646317 
	C204.694061,107.380875 204.074188,103.951920 203.932465,100.802132 
M193.997879,86.516701 
	C194.490982,88.309097 194.984085,90.101494 195.477203,91.893890 
	C197.923203,91.157684 201.047485,91.081863 202.605789,89.481369 
	C203.908920,88.142937 204.446655,84.098541 203.413757,82.905106 
	C201.857086,81.106453 198.636169,80.748154 196.122681,79.777603 
	C195.407593,81.731789 194.692505,83.685982 193.997879,86.516701 
z"/>
<path fill="#B6DAF6" opacity="1.000000" stroke="none" 
	d="
M477.971619,101.004150 
	C477.952576,98.299980 477.933502,95.595795 478.130371,92.185898 
	C478.406250,90.602600 478.466217,89.725029 478.526184,88.847458 
	C481.404846,75.247124 493.014954,67.061134 507.341156,68.530777 
	C521.453186,69.978439 529.635925,79.111359 529.831360,93.632355 
	C530.091614,112.970772 519.893066,122.944809 500.852692,121.972931 
	C489.155090,121.375847 481.896210,115.455666 478.686768,103.251526 
	C478.435760,102.063187 478.203705,101.533669 477.971619,101.004150 
M496.618835,97.431259 
	C496.919708,99.890877 496.601288,102.681068 497.689819,104.720192 
	C498.854950,106.902863 501.379517,109.833267 503.249054,109.789696 
	C505.532440,109.736496 509.439423,107.154060 509.691803,105.269936 
	C510.553650,98.835175 510.519196,92.189789 509.915741,85.709602 
	C509.753998,83.972404 506.280304,81.210205 504.454041,81.307312 
	C502.292114,81.422287 499.292450,83.710655 498.409424,85.798561 
	C497.041534,89.033051 497.158417,92.895462 496.618835,97.431259 
z"/>
<path fill="#B5DAF5" opacity="1.000000" stroke="none" 
	d="
M432.040161,117.026581 
	C420.469147,107.810928 421.905579,87.905304 427.463043,79.528503 
	C434.114319,69.503029 449.202728,65.427658 461.497131,70.789665 
	C464.562378,72.126518 467.595490,74.389519 469.667603,77.001068 
	C477.941376,87.428818 477.201324,105.593483 468.507965,114.966568 
	C460.735931,123.346298 443.747162,124.418343 432.040161,117.026581 
M442.695892,90.350090 
	C442.826233,95.291504 442.454742,100.324516 443.331848,105.129608 
	C443.686646,107.073318 446.662048,109.688881 448.637085,109.866943 
	C450.659668,110.049286 454.089844,108.110359 454.863251,106.251068 
	C457.745789,99.321609 457.763000,91.930138 455.142151,84.883232 
	C454.504974,83.170029 451.720734,81.186836 449.975983,81.234627 
	C447.964874,81.289719 445.711212,83.170677 444.142151,84.812370 
	C443.145844,85.854790 443.204742,87.905731 442.695892,90.350090 
z"/>
<path fill="#B6DAF5" opacity="1.000000" stroke="none" 
	d="
M722.982300,119.050262 
	C722.435669,118.853714 721.889038,118.657158 721.071411,117.906403 
	C720.096130,116.982353 719.391846,116.612511 718.687500,116.242676 
	C718.687500,116.242676 718.776855,116.229713 718.729004,115.927002 
	C717.977356,115.130928 717.273682,114.637558 716.569946,114.144196 
	C714.941345,111.220825 713.312744,108.297440 711.792725,104.510925 
	C712.220154,96.938385 712.539124,90.228966 712.858032,83.519554 
	C714.332581,77.975227 718.239929,74.416595 723.058716,71.990471 
	C733.302917,66.832764 743.937378,66.442917 753.230225,73.382652 
	C763.036133,80.705498 763.651733,91.741760 761.597961,102.835312 
	C759.846680,112.295135 754.333008,118.648972 744.057739,120.645866 
	C742.648682,120.772835 741.819214,121.098618 740.989746,121.424400 
	C737.610413,121.511299 734.231140,121.598183 730.279236,121.235123 
	C727.498535,120.077599 726.422852,114.981041 722.982300,119.050262 
M729.971130,104.220261 
	C730.752808,107.574539 732.366699,110.225235 736.223572,110.142242 
	C740.413574,110.052086 742.732239,107.241989 743.046570,103.488480 
	C743.499756,98.076729 743.537842,92.575172 743.104553,87.163872 
	C742.822083,83.636742 740.629944,80.842064 736.547607,81.002441 
	C732.828186,81.148560 730.679749,83.702019 730.362000,87.083611 
	C729.853882,92.491150 729.966370,97.957008 729.971130,104.220261 
z"/>
<path fill="#B6D9F5" opacity="1.000000" stroke="none" 
	d="
M639.351257,107.943016 
	C639.655029,103.387917 636.371399,102.980209 633.535278,102.148842 
	C629.232117,100.887474 624.738953,100.107262 620.623718,98.404419 
	C609.867981,93.953850 608.310608,81.238449 617.408997,73.837189 
	C625.171509,67.522614 641.776367,66.467308 650.155273,71.818581 
	C654.156677,74.374077 656.614746,77.916138 656.822876,83.938080 
	C650.209900,83.162170 643.697998,86.242912 637.340576,81.891975 
	C636.040771,81.002457 633.653137,81.468910 631.822205,81.717316 
	C631.191528,81.802872 630.183655,83.715752 630.271667,83.797249 
	C631.531433,84.964684 632.803833,86.394272 634.357056,86.916908 
	C638.764343,88.399918 643.399231,89.226311 647.766479,90.804031 
	C655.089233,93.449478 658.142578,97.693787 658.186218,104.399193 
	C658.232910,111.589211 654.622925,116.422241 648.196777,119.082985 
	C639.805298,122.557472 631.191345,123.405792 622.311279,120.747574 
	C615.592346,118.736267 612.188538,114.262115 611.172058,106.592674 
	C617.146118,106.592674 622.869141,106.545074 628.588867,106.659744 
	C629.223083,106.672470 629.973328,107.510376 630.440918,108.136475 
	C633.288513,111.948799 636.183899,111.410667 639.351257,107.943016 
z"/>
<path fill="#B5D9F4" opacity="1.000000" stroke="none" 
	d="
M325.278961,87.966354 
	C329.494843,89.202713 333.392303,90.146187 337.105835,91.569473 
	C342.615509,93.681160 345.584259,97.894806 345.785034,103.820343 
	C345.986420,109.764816 343.830536,114.794815 338.497284,117.651062 
	C328.444031,123.035156 317.894043,124.035614 307.174316,119.689949 
	C301.945190,117.570122 299.296936,112.920418 299.472961,106.517540 
	C304.724426,106.517540 310.014038,106.404152 315.290802,106.614410 
	C316.330536,106.655846 317.228882,108.204880 318.353668,108.601875 
	C320.367554,109.312698 322.516083,110.065857 324.583466,110.001503 
	C325.462311,109.974144 327.205963,107.237633 326.968048,106.919197 
	C325.699890,105.221809 324.161957,103.271538 322.284698,102.575188 
	C317.936707,100.962334 313.256897,100.259987 308.866882,98.740059 
	C303.920898,97.027664 299.950897,94.016418 299.327942,88.286453 
	C298.665924,82.197525 300.492798,76.769547 305.674469,73.435272 
	C315.670593,67.003075 326.419006,66.561882 337.112427,71.545586 
	C341.690277,73.679108 344.480225,77.610207 344.092621,83.916618 
	C337.455566,82.981659 330.761780,86.633995 324.554565,81.580193 
	C323.530609,80.746506 321.121460,81.360306 319.440216,81.717850 
	C318.803772,81.853210 317.845520,83.661522 318.006805,83.843109 
	C319.028687,84.993553 320.235535,86.047897 321.557098,86.841217 
	C322.524872,87.422188 323.761475,87.555374 325.278961,87.966354 
z"/>
<path fill="#B5D8F4" opacity="1.000000" stroke="none" 
	d="
M712.526245,83.739838 
	C712.539124,90.228966 712.220154,96.938385 711.855713,104.165543 
	C711.213623,102.084709 710.440613,99.510521 710.077148,96.879730 
	C709.794067,94.830765 710.020569,92.711380 709.664307,90.300323 
	C705.586487,103.852844 694.573242,104.113281 682.433411,104.362885 
	C682.433411,108.894043 682.316589,113.292381 682.475220,117.680756 
	C682.577942,120.523712 681.442505,121.542473 678.671509,121.446335 
	C674.686035,121.308060 670.685425,121.271812 666.704041,121.461357 
	C663.740479,121.602448 662.368591,120.482246 662.372009,117.518166 
	C662.389832,102.235466 662.380310,86.952736 662.380310,70.429543 
	C668.904724,70.429543 675.126038,70.429634 681.347290,70.429504 
	C685.170044,70.429428 688.995667,70.332207 692.814941,70.447639 
	C702.709473,70.746674 708.119690,75.885445 709.031067,85.650032 
	C709.109070,86.486061 709.520691,87.290955 709.988281,88.783707 
	C710.953735,86.672783 711.574097,85.316452 712.526245,83.739838 
M688.632996,81.247902 
	C686.575439,80.988037 684.517944,80.728172 682.023621,80.413139 
	C682.023621,85.396721 682.023621,89.742355 682.023621,95.970558 
	C685.801453,93.578186 689.217102,92.395103 691.030334,89.999298 
	C692.954163,87.457443 692.444397,83.965897 688.632996,81.247902 
z"/>
<path fill="#B6DAF6" opacity="1.000000" stroke="none" 
	d="
M795.740234,92.039284 
	C795.777954,100.691925 795.690430,108.854485 795.915833,117.008392 
	C796.006836,120.300659 794.897644,121.510551 791.624634,121.280495 
	C788.476318,121.059204 785.300415,121.231865 782.136658,121.227386 
	C775.173584,121.217529 775.210693,121.217293 775.364380,114.007584 
	C775.545410,105.517990 775.660400,97.026939 775.789734,88.536308 
	C775.828613,85.987228 775.403259,84.142715 772.058228,83.937592 
	C763.539490,83.415192 763.549377,83.265915 763.625305,74.447792 
	C763.633850,73.455040 763.626526,72.462166 763.626526,70.878265 
	C778.356873,70.878265 792.888855,70.878265 807.711121,70.878265 
	C807.711121,74.888351 807.711121,78.959572 807.711121,83.020264 
	C803.788635,83.556396 799.816162,83.691078 796.207397,84.906082 
	C795.398438,85.178429 795.862671,89.232620 795.740234,92.039284 
z"/>
<path fill="#AACBE4" opacity="1.000000" stroke="none" 
	d="
M91.442474,124.576721 
	C92.539276,122.539177 93.509758,120.862885 95.321495,117.733513 
	C96.554474,121.644615 97.992249,124.178398 98.052567,126.744553 
	C98.326271,138.388824 100.918076,140.979568 112.045364,139.893356 
	C113.608414,146.899185 111.927048,148.667603 104.847893,147.463501 
	C94.366295,145.680634 88.476883,135.876846 91.442474,124.576721 
z"/>
<path fill="#B5D8F4" opacity="1.000000" stroke="none" 
	d="
M723.220154,119.295006 
	C726.422852,114.981041 727.498535,120.077599 729.858154,121.036926 
	C727.825745,120.705688 725.641907,120.122719 723.220154,119.295006 
z"/>
<path fill="#4E5861" opacity="1.000000" stroke="none" 
	d="
M478.262726,88.948296 
	C478.466217,89.725029 478.406250,90.602600 478.124390,91.734680 
	C477.934753,91.009163 477.967010,90.029152 478.262726,88.948296 
z"/>
<path fill="#B5D8F4" opacity="1.000000" stroke="none" 
	d="
M741.295105,121.508591 
	C741.819214,121.098618 742.648682,120.772835 743.689941,120.598824 
	C743.134705,121.031326 742.367554,121.312050 741.295105,121.508591 
z"/>
<path fill="#4E5861" opacity="1.000000" stroke="none" 
	d="
M477.783203,101.153648 
	C478.203705,101.533669 478.435760,102.063187 478.571106,102.879326 
	C478.181244,102.545021 477.888031,101.924088 477.783203,101.153648 
z"/>
<path fill="#B5D8F4" opacity="1.000000" stroke="none" 
	d="
M716.677246,114.449600 
	C717.273682,114.637558 717.977356,115.130928 718.727112,115.972076 
	C718.110291,115.798248 717.447449,115.276627 716.677246,114.449600 
z"/>
<path fill="#B5D8F4" opacity="1.000000" stroke="none" 
	d="
M718.816956,116.520149 
	C719.391846,116.612511 720.096130,116.982353 720.907349,117.654053 
	C720.324890,117.569809 719.635681,117.183723 718.816956,116.520149 
z"/>
<path fill="#323639" opacity="1.000000" stroke="none" 
	d="
M138.673615,34.501030 
	C141.843674,43.159367 139.035172,46.136501 125.996864,47.784634 
	C125.996864,50.424404 126.244659,53.223061 125.874352,55.937393 
	C125.727158,57.016323 124.210617,57.908428 123.317490,58.885582 
	C122.588913,57.919216 121.252785,56.967758 121.228653,55.984116 
	C121.048981,48.659657 121.051315,41.327049 121.216637,34.001968 
	C121.240082,32.963146 122.443932,31.073000 123.117027,31.065958 
	C128.414474,31.010536 134.235077,28.861794 138.673615,34.501030 
M126.715057,35.968338 
	C126.457504,37.946037 126.199951,39.923737 125.886719,42.328957 
	C129.726334,41.769749 134.499008,44.359978 134.775772,38.991291 
	C135.021606,34.222157 130.417496,36.000774 126.715057,35.968338 
z"/>
<path fill="#27292A" opacity="1.000000" stroke="none" 
	d="
M69.165497,121.050156 
	C66.313026,115.139641 63.782387,109.450409 60.991886,103.176979 
	C71.171112,103.176979 80.379524,103.176979 90.887581,103.176979 
	C85.145119,109.708763 80.092537,115.714592 74.660873,121.355392 
	C73.845154,122.202515 71.256073,121.342018 69.165497,121.050156 
z"/>
<path fill="#292B2D" opacity="1.000000" stroke="none" 
	d="
M45.920616,118.974960 
	C49.147240,114.292038 52.436474,109.975487 56.434952,104.728172 
	C59.209126,111.224380 61.963474,116.642021 63.637779,122.375069 
	C64.020416,123.685295 60.829090,127.530373 59.021423,127.720131 
	C52.634121,128.390610 46.133453,127.981155 39.410664,127.981155 
	C40.018356,122.685074 44.166489,123.848976 47.897316,123.197441 
	C47.183857,121.760117 46.583538,120.550728 45.920616,118.974960 
z"/>
<path fill="#323639" opacity="1.000000" stroke="none" 
	d="
M66.157700,129.370514 
	C67.668602,126.285858 70.028633,125.413834 72.305412,127.221771 
	C73.440529,128.123138 74.193222,130.963379 73.596260,132.178589 
	C73.000145,133.392059 70.213692,134.543869 68.919418,134.115494 
	C67.618599,133.684952 66.973412,131.273499 66.157700,129.370514 
z"/>
<path fill="#323639" opacity="1.000000" stroke="none" 
	d="
M402.432159,102.663589 
	C401.923767,105.116875 401.892792,108.367577 400.570648,109.026115 
	C398.314575,110.149849 395.248169,109.646835 392.522156,109.827164 
	C392.869080,106.202133 391.957733,101.423286 393.921936,99.281258 
	C395.831238,97.199089 400.496307,98.323853 402.432159,102.663589 
z"/>
<path fill="#2D3033" opacity="1.000000" stroke="none" 
	d="
M398.973999,80.733307 
	C400.200653,82.888382 401.943268,84.991249 401.721252,86.860786 
	C401.252472,90.808250 397.869843,92.061852 394.296570,91.994751 
	C390.443512,91.922409 391.828186,88.641769 391.681061,86.674446 
	C391.140503,79.446709 391.981049,78.797707 398.973999,80.733307 
z"/>
<path fill="#2D3033" opacity="1.000000" stroke="none" 
	d="
M204.135284,101.142166 
	C204.074188,103.951920 204.694061,107.380875 203.320602,108.646317 
	C201.638062,110.196480 198.286896,109.935509 195.657166,110.457596 
	C195.426819,107.114342 194.853653,103.729912 195.246048,100.461411 
	C195.327698,99.781265 198.972168,99.289307 200.998611,99.187813 
	C201.947220,99.140289 202.952728,100.228600 204.135284,101.142166 
z"/>
<path fill="#2D3033" opacity="1.000000" stroke="none" 
	d="
M193.987640,86.078430 
	C194.692505,83.685982 195.407593,81.731789 196.122681,79.777603 
	C198.636169,80.748154 201.857086,81.106453 203.413757,82.905106 
	C204.446655,84.098541 203.908920,88.142937 202.605789,89.481369 
	C201.047485,91.081863 197.923203,91.157684 195.477203,91.893890 
	C194.984085,90.101494 194.490982,88.309097 193.987640,86.078430 
z"/>
<path fill="#27292A" opacity="1.000000" stroke="none" 
	d="
M496.632324,96.961441 
	C497.158417,92.895462 497.041534,89.033051 498.409424,85.798561 
	C499.292450,83.710655 502.292114,81.422287 504.454041,81.307312 
	C506.280304,81.210205 509.753998,83.972404 509.915741,85.709602 
	C510.519196,92.189789 510.553650,98.835175 509.691803,105.269936 
	C509.439423,107.154060 505.532440,109.736496 503.249054,109.789696 
	C501.379517,109.833267 498.854950,106.902863 497.689819,104.720192 
	C496.601288,102.681068 496.919708,99.890877 496.632324,96.961441 
z"/>
<path fill="#292B2D" opacity="1.000000" stroke="none" 
	d="
M442.743164,89.927246 
	C443.204742,87.905731 443.145844,85.854790 444.142151,84.812370 
	C445.711212,83.170677 447.964874,81.289719 449.975983,81.234627 
	C451.720734,81.186836 454.504974,83.170029 455.142151,84.883232 
	C457.763000,91.930138 457.745789,99.321609 454.863251,106.251068 
	C454.089844,108.110359 450.659668,110.049286 448.637085,109.866943 
	C446.662048,109.688881 443.686646,107.073318 443.331848,105.129608 
	C442.454742,100.324516 442.826233,95.291504 442.743164,89.927246 
z"/>
<path fill="#292B2D" opacity="1.000000" stroke="none" 
	d="
M729.893799,103.809235 
	C729.966370,97.957008 729.853882,92.491150 730.362000,87.083611 
	C730.679749,83.702019 732.828186,81.148560 736.547607,81.002441 
	C740.629944,80.842064 742.822083,83.636742 743.104553,87.163872 
	C743.537842,92.575172 743.499756,98.076729 743.046570,103.488480 
	C742.732239,107.241989 740.413574,110.052086 736.223572,110.142242 
	C732.366699,110.225235 730.752808,107.574539 729.893799,103.809235 
z"/>
<path fill="#27292A" opacity="1.000000" stroke="none" 
	d="
M688.993652,81.471268 
	C692.444397,83.965897 692.954163,87.457443 691.030334,89.999298 
	C689.217102,92.395103 685.801453,93.578186 682.023621,95.970558 
	C682.023621,89.742355 682.023621,85.396721 682.023621,80.413139 
	C684.517944,80.728172 686.575439,80.988037 688.993652,81.471268 
z"/>
<path fill="#B5D8F4" opacity="1.000000" stroke="none" 
	d="
M127.156082,35.826904 
	C130.417496,36.000774 135.021606,34.222157 134.775772,38.991291 
	C134.499008,44.359978 129.726334,41.769749 125.886719,42.328957 
	C126.199951,39.923737 126.457504,37.946037 127.156082,35.826904 
z"/>
</svg>